<svg width="64" height="64" viewBox="0 0 64 64" fill="none" xmlns="http://www.w3.org/2000/svg">
<path d="M53.6001 38.8267C53.2042 38.6146 52.7831 38.4533 52.3468 38.3467V25.6534C52.7965 25.5632 53.2287 25.4011 53.6268 25.1734C54.7195 24.5439 55.5173 23.5062 55.8449 22.2885C56.1725 21.0707 56.0029 19.7727 55.3734 18.68C54.744 17.5873 53.7062 16.7895 52.4885 16.4619C51.2708 16.1343 49.9728 16.3039 48.8801 16.9334C48.4716 17.1563 48.1022 17.4445 47.7868 17.7867L36.8268 11.44C36.9577 10.9988 37.0206 10.5402 37.0134 10.08C37.0134 8.82115 36.5133 7.61381 35.6232 6.72364C34.733 5.83347 33.5257 5.33337 32.2668 5.33337C31.0079 5.33337 29.8005 5.83347 28.9104 6.72364C28.0202 7.61381 27.5201 8.82115 27.5201 10.08C27.5129 10.5402 27.5759 10.9988 27.7068 11.44L16.7468 17.76C16.4293 17.4274 16.06 17.1482 15.6534 16.9334C14.5607 16.3039 13.2628 16.1343 12.045 16.4619C10.8273 16.7895 9.78954 17.5873 9.1601 18.68C8.53065 19.7727 8.36105 21.0707 8.68862 22.2885C9.01618 23.5062 9.81407 24.5439 10.9068 25.1734C11.3049 25.4011 11.7371 25.5632 12.1868 25.6534V38.3467C11.7504 38.4533 11.3293 38.6146 10.9334 38.8267C9.84074 39.4562 9.04285 40.4939 8.71528 41.7116C8.38772 42.9294 8.55732 44.2274 9.18676 45.32C9.81621 46.4127 10.8539 47.2106 12.0717 47.5382C13.2894 47.8658 14.5874 47.6962 15.6801 47.0667C16.0749 46.8459 16.4344 46.5673 16.7468 46.24L27.7068 52.56C27.5759 53.0013 27.5129 53.4599 27.5201 53.92C27.5201 55.1789 28.0202 56.3863 28.9104 57.2764C29.8005 58.1666 31.0079 58.6667 32.2668 58.6667C33.5257 58.6667 34.733 58.1666 35.6232 57.2764C36.5133 56.3863 37.0134 55.1789 37.0134 53.92C37.0176 53.4123 36.9365 52.9075 36.7734 52.4267L47.6801 46.1334C48.0167 46.5075 48.4132 46.8229 48.8534 47.0667C49.3945 47.3784 49.9916 47.5804 50.6107 47.6613C51.2299 47.7422 51.8589 47.7004 52.4618 47.5382C53.0648 47.376 53.6299 47.0966 54.1249 46.716C54.6199 46.3354 55.0351 45.8611 55.3468 45.32C55.6584 44.779 55.8605 44.1819 55.9414 43.5627C56.0223 42.9436 55.9804 42.3146 55.8182 41.7116C55.6561 41.1087 55.3767 40.5436 54.9961 40.0486C54.6155 39.5536 54.1411 39.1384 53.6001 38.8267ZM17.9201 41.84C17.8148 41.3993 17.644 40.9768 17.4134 40.5867C17.2003 40.1869 16.9207 39.8262 16.5868 39.52L30.9334 14.64C31.8045 14.8919 32.7291 14.8919 33.6001 14.64L48.0001 39.52C47.6661 39.8262 47.3866 40.1869 47.1734 40.5867C46.9429 40.9768 46.7721 41.3993 46.6668 41.84H17.9201ZM46.6668 19.7334C46.4945 20.3462 46.4459 20.9871 46.5238 21.6189C46.6016 22.2507 46.8043 22.8607 47.1201 23.4134C47.4369 23.9722 47.8657 24.4596 48.3797 24.8451C48.8936 25.2305 49.4816 25.5057 50.1068 25.6534V38.3467H49.9201L35.5468 13.52L35.6801 13.3334L46.6668 19.7334ZM28.8534 13.3334C28.8421 13.3771 28.8421 13.423 28.8534 13.4667L14.6134 38.4H14.4268V25.6534C15.052 25.5057 15.6399 25.2305 16.1539 24.8451C16.6678 24.4596 17.0966 23.9722 17.4134 23.4134C17.7292 22.8607 17.9319 22.2507 18.0098 21.6189C18.0876 20.9871 18.039 20.3462 17.8668 19.7334L28.8534 13.3334ZM35.7868 50.6667C35.3404 50.1776 34.7966 49.7874 34.1904 49.521C33.5842 49.2547 32.9289 49.1181 32.2668 49.12C31.6297 49.1143 30.9981 49.2392 30.4111 49.4868C29.824 49.7345 29.2939 50.0997 28.8534 50.56L17.8668 44.2667V44.1067H46.6134V44.4L35.7868 50.6667Z" fill="#373131"/>
</svg>
