<svg width="64" height="64" viewBox="0 0 64 64" fill="none" xmlns="http://www.w3.org/2000/svg">
<path d="M6.66699 7.33331C6.66699 6.80288 6.45628 6.29417 6.08121 5.9191C5.70613 5.54403 5.19743 5.33331 4.66699 5.33331C4.13656 5.33331 3.62785 5.54403 3.25278 5.9191C2.87771 6.29417 2.66699 6.80288 2.66699 7.33331V56.6666C2.66699 57.7706 3.56299 58.6666 4.66699 58.6666H53.3337C53.8641 58.6666 54.3728 58.4559 54.7479 58.0809C55.1229 57.7058 55.3337 57.1971 55.3337 56.6666C55.3337 56.1362 55.1229 55.6275 54.7479 55.2524C54.3728 54.8774 53.8641 54.6666 53.3337 54.6666H6.66699V7.33331Z" fill="#373131"/>
<path d="M59.4134 20.7467C59.7667 20.3676 59.959 19.8661 59.9499 19.348C59.9407 18.8298 59.7308 18.3355 59.3644 17.969C58.998 17.6026 58.5036 17.3927 57.9855 17.3836C57.4673 17.3744 56.9659 17.5667 56.5867 17.92L41.3334 33.1733L31.4134 23.2534C31.0384 22.8788 30.5301 22.6684 30.0001 22.6684C29.4701 22.6684 28.9618 22.8788 28.5868 23.2534L12.5867 39.2534C12.3903 39.4364 12.2326 39.6572 12.1233 39.9026C12.014 40.1479 11.9552 40.4128 11.9505 40.6813C11.9458 40.9498 11.9952 41.2166 12.0958 41.4656C12.1963 41.7146 12.3461 41.9409 12.536 42.1308C12.7259 42.3207 12.9521 42.4704 13.2012 42.571C13.4502 42.6716 13.7169 42.721 13.9855 42.7163C14.254 42.7115 14.5189 42.6527 14.7642 42.5434C15.0095 42.4341 15.2303 42.2765 15.4134 42.08L30.0001 27.4934L39.9201 37.4133C40.2951 37.7879 40.8034 37.9983 41.3334 37.9983C41.8634 37.9983 42.3718 37.7879 42.7468 37.4133L59.4134 20.7467Z" fill="#373131"/>
</svg>
