<svg width="64" height="64" viewBox="0 0 64 64" fill="none" xmlns="http://www.w3.org/2000/svg">
<mask id="path-1-inside-1_834_1030" fill="white">
<path d="M31.2052 53.1787C31.5536 53.1787 31.9109 53.1005 32.2772 52.944C32.6434 52.7876 32.9394 52.5965 33.1652 52.3707L53.9545 31.5787C54.6247 30.9085 55.1421 30.224 55.5065 29.5253C55.8692 28.8231 56.0505 28.0533 56.0505 27.216C56.0505 26.368 55.8692 25.5449 55.5065 24.7467C55.1421 23.9467 54.6247 23.2178 53.9545 22.56L43.9545 12.56C43.2949 11.8898 42.6167 11.3982 41.9198 11.0853C41.2247 10.7725 40.4532 10.616 39.6052 10.616C38.7678 10.616 37.9901 10.7725 37.2718 11.0853C36.5536 11.3982 35.8772 11.8889 35.2425 12.5573L32.9172 14.8827L37.8505 19.8293C38.3803 20.3502 38.7758 20.9422 39.0372 21.6053C39.2967 22.2685 39.4265 22.9413 39.4265 23.624C39.4265 25.0125 38.9723 26.1609 38.0638 27.0693C37.1554 27.9778 36.0078 28.4311 34.6212 28.4293C33.9367 28.4293 33.2692 28.3253 32.6185 28.1173C31.9678 27.9093 31.3821 27.5449 30.8612 27.024L25.7598 21.9413L14.2452 33.4533C13.9767 33.7236 13.7749 34.0302 13.6398 34.3733C13.5047 34.7165 13.4372 35.0631 13.4372 35.4133C13.4372 36.0427 13.6389 36.5609 14.0425 36.968C14.4443 37.3769 14.9598 37.5813 15.5892 37.5813C15.9376 37.5813 16.2949 37.5031 16.6612 37.3467C17.0274 37.1884 17.3234 36.9964 17.5492 36.7707L25.9998 28.32L27.8878 30.208L19.4505 38.6613C19.1803 38.9298 18.9776 39.2356 18.8425 39.5787C18.7092 39.9236 18.6425 40.2702 18.6425 40.6187C18.6425 41.2142 18.8523 41.7218 19.2718 42.1413C19.6914 42.5609 20.1989 42.7716 20.7945 42.7733C21.1429 42.7733 21.5003 42.6942 21.8665 42.536C22.2327 42.3778 22.5287 42.1867 22.7545 41.9627L31.8212 32.912L33.7092 34.7973L24.6558 43.864C24.4194 44.0898 24.2256 44.3858 24.0745 44.752C23.9216 45.1182 23.8452 45.4756 23.8452 45.824C23.8452 46.4178 24.0558 46.9244 24.4772 47.344C24.8967 47.7671 25.4043 47.9787 25.9998 47.9787C26.3483 47.9787 26.6949 47.9111 27.0398 47.776C27.3847 47.6409 27.6905 47.4382 27.9572 47.168L37.0238 38.1147L38.9118 40.0027L29.8452 49.0693C29.5767 49.3396 29.3749 49.664 29.2398 50.0427C29.1047 50.4213 29.0372 50.7671 29.0372 51.08C29.0372 51.7093 29.2585 52.2169 29.7012 52.6027C30.1438 52.9884 30.6452 53.1813 31.2052 53.1813M31.1892 55.848C29.8185 55.848 28.6452 55.3467 27.6692 54.344C26.6932 53.3396 26.2647 52.1005 26.3838 50.6267C24.8727 50.6445 23.6149 50.1938 22.6105 49.2747C21.6061 48.3538 21.1287 47.0702 21.1785 45.424C19.5323 45.4418 18.2345 44.9707 17.2852 44.0107C16.3358 43.0507 15.9038 41.7867 15.9892 40.2187C14.5065 40.2365 13.2656 39.8187 12.2665 38.9653C11.2692 38.1156 10.7705 36.9316 10.7705 35.4133C10.7705 34.7289 10.9029 34.0445 11.1678 33.36C11.4327 32.6738 11.8238 32.0711 12.3412 31.552L25.7598 18.1493L32.6452 25.0347C32.8709 25.2711 33.1501 25.4658 33.4825 25.6187C33.8149 25.7716 34.1892 25.8471 34.6052 25.8453C35.1758 25.8453 35.6798 25.6462 36.1172 25.248C36.5545 24.8498 36.7741 24.3307 36.7758 23.6907C36.7758 23.2747 36.6994 22.9013 36.5465 22.5707C36.3936 22.2382 36.1998 21.9591 35.9652 21.7333L26.7918 12.56C26.1305 11.8898 25.4434 11.3982 24.7305 11.0853C24.0176 10.7725 23.2372 10.616 22.3892 10.616C21.5518 10.616 20.7909 10.7725 20.1065 11.0853C19.4238 11.3982 18.7474 11.8898 18.0772 12.56L9.95983 20.6933C9.38739 21.2622 8.92516 21.9422 8.57316 22.7333C8.22116 23.5227 8.0345 24.3378 8.01316 25.1787C7.99539 25.7813 8.04694 26.36 8.16783 26.9147C8.28872 27.4693 8.48427 27.992 8.7545 28.4827L6.73316 30.504C6.28516 29.7893 5.93494 28.9662 5.6825 28.0347C5.43005 27.1031 5.31361 26.152 5.33316 25.1813C5.3545 23.9689 5.59716 22.8089 6.06116 21.7013C6.52516 20.5938 7.19005 19.6062 8.05583 18.7387L16.1225 10.672C17.0523 9.75112 18.0363 9.06667 19.0745 8.61867C20.1127 8.17245 21.2354 7.94934 22.4425 7.94934C23.6496 7.94934 24.7625 8.17334 25.7812 8.62134C26.8016 9.06756 27.7723 9.75112 28.6932 10.672L31.0132 12.9947L33.3385 10.672C34.2683 9.75112 35.2434 9.06667 36.2638 8.61867C37.2843 8.17245 38.3981 7.94934 39.6052 7.94934C40.8123 7.94934 41.9349 8.17334 42.9732 8.62134C44.0096 9.06756 44.9874 9.75112 45.9065 10.672L55.8425 20.6053C56.7616 21.5245 57.4709 22.5564 57.9705 23.7013C58.4701 24.8462 58.7189 26.0222 58.7172 27.2293C58.7172 28.4382 58.4683 29.552 57.9705 30.5707C57.4727 31.5893 56.7634 32.56 55.8425 33.4827L35.0505 54.256C34.4976 54.8107 33.8949 55.2142 33.2425 55.4667C32.5918 55.7191 31.9074 55.8453 31.1892 55.8453"/>
</mask>
<path d="M31.2052 53.1787C31.5536 53.1787 31.9109 53.1005 32.2772 52.944C32.6434 52.7876 32.9394 52.5965 33.1652 52.3707L53.9545 31.5787C54.6247 30.9085 55.1421 30.224 55.5065 29.5253C55.8692 28.8231 56.0505 28.0533 56.0505 27.216C56.0505 26.368 55.8692 25.5449 55.5065 24.7467C55.1421 23.9467 54.6247 23.2178 53.9545 22.56L43.9545 12.56C43.2949 11.8898 42.6167 11.3982 41.9198 11.0853C41.2247 10.7725 40.4532 10.616 39.6052 10.616C38.7678 10.616 37.9901 10.7725 37.2718 11.0853C36.5536 11.3982 35.8772 11.8889 35.2425 12.5573L32.9172 14.8827L37.8505 19.8293C38.3803 20.3502 38.7758 20.9422 39.0372 21.6053C39.2967 22.2685 39.4265 22.9413 39.4265 23.624C39.4265 25.0125 38.9723 26.1609 38.0638 27.0693C37.1554 27.9778 36.0078 28.4311 34.6212 28.4293C33.9367 28.4293 33.2692 28.3253 32.6185 28.1173C31.9678 27.9093 31.3821 27.5449 30.8612 27.024L25.7598 21.9413L14.2452 33.4533C13.9767 33.7236 13.7749 34.0302 13.6398 34.3733C13.5047 34.7165 13.4372 35.0631 13.4372 35.4133C13.4372 36.0427 13.6389 36.5609 14.0425 36.968C14.4443 37.3769 14.9598 37.5813 15.5892 37.5813C15.9376 37.5813 16.2949 37.5031 16.6612 37.3467C17.0274 37.1884 17.3234 36.9964 17.5492 36.7707L25.9998 28.32L27.8878 30.208L19.4505 38.6613C19.1803 38.9298 18.9776 39.2356 18.8425 39.5787C18.7092 39.9236 18.6425 40.2702 18.6425 40.6187C18.6425 41.2142 18.8523 41.7218 19.2718 42.1413C19.6914 42.5609 20.1989 42.7716 20.7945 42.7733C21.1429 42.7733 21.5003 42.6942 21.8665 42.536C22.2327 42.3778 22.5287 42.1867 22.7545 41.9627L31.8212 32.912L33.7092 34.7973L24.6558 43.864C24.4194 44.0898 24.2256 44.3858 24.0745 44.752C23.9216 45.1182 23.8452 45.4756 23.8452 45.824C23.8452 46.4178 24.0558 46.9244 24.4772 47.344C24.8967 47.7671 25.4043 47.9787 25.9998 47.9787C26.3483 47.9787 26.6949 47.9111 27.0398 47.776C27.3847 47.6409 27.6905 47.4382 27.9572 47.168L37.0238 38.1147L38.9118 40.0027L29.8452 49.0693C29.5767 49.3396 29.3749 49.664 29.2398 50.0427C29.1047 50.4213 29.0372 50.7671 29.0372 51.08C29.0372 51.7093 29.2585 52.2169 29.7012 52.6027C30.1438 52.9884 30.6452 53.1813 31.2052 53.1813M31.1892 55.848C29.8185 55.848 28.6452 55.3467 27.6692 54.344C26.6932 53.3396 26.2647 52.1005 26.3838 50.6267C24.8727 50.6445 23.6149 50.1938 22.6105 49.2747C21.6061 48.3538 21.1287 47.0702 21.1785 45.424C19.5323 45.4418 18.2345 44.9707 17.2852 44.0107C16.3358 43.0507 15.9038 41.7867 15.9892 40.2187C14.5065 40.2365 13.2656 39.8187 12.2665 38.9653C11.2692 38.1156 10.7705 36.9316 10.7705 35.4133C10.7705 34.7289 10.9029 34.0445 11.1678 33.36C11.4327 32.6738 11.8238 32.0711 12.3412 31.552L25.7598 18.1493L32.6452 25.0347C32.8709 25.2711 33.1501 25.4658 33.4825 25.6187C33.8149 25.7716 34.1892 25.8471 34.6052 25.8453C35.1758 25.8453 35.6798 25.6462 36.1172 25.248C36.5545 24.8498 36.7741 24.3307 36.7758 23.6907C36.7758 23.2747 36.6994 22.9013 36.5465 22.5707C36.3936 22.2382 36.1998 21.9591 35.9652 21.7333L26.7918 12.56C26.1305 11.8898 25.4434 11.3982 24.7305 11.0853C24.0176 10.7725 23.2372 10.616 22.3892 10.616C21.5518 10.616 20.7909 10.7725 20.1065 11.0853C19.4238 11.3982 18.7474 11.8898 18.0772 12.56L9.95983 20.6933C9.38739 21.2622 8.92516 21.9422 8.57316 22.7333C8.22116 23.5227 8.0345 24.3378 8.01316 25.1787C7.99539 25.7813 8.04694 26.36 8.16783 26.9147C8.28872 27.4693 8.48427 27.992 8.7545 28.4827L6.73316 30.504C6.28516 29.7893 5.93494 28.9662 5.6825 28.0347C5.43005 27.1031 5.31361 26.152 5.33316 25.1813C5.3545 23.9689 5.59716 22.8089 6.06116 21.7013C6.52516 20.5938 7.19005 19.6062 8.05583 18.7387L16.1225 10.672C17.0523 9.75112 18.0363 9.06667 19.0745 8.61867C20.1127 8.17245 21.2354 7.94934 22.4425 7.94934C23.6496 7.94934 24.7625 8.17334 25.7812 8.62134C26.8016 9.06756 27.7723 9.75112 28.6932 10.672L31.0132 12.9947L33.3385 10.672C34.2683 9.75112 35.2434 9.06667 36.2638 8.61867C37.2843 8.17245 38.3981 7.94934 39.6052 7.94934C40.8123 7.94934 41.9349 8.17334 42.9732 8.62134C44.0096 9.06756 44.9874 9.75112 45.9065 10.672L55.8425 20.6053C56.7616 21.5245 57.4709 22.5564 57.9705 23.7013C58.4701 24.8462 58.7189 26.0222 58.7172 27.2293C58.7172 28.4382 58.4683 29.552 57.9705 30.5707C57.4727 31.5893 56.7634 32.56 55.8425 33.4827L35.0505 54.256C34.4976 54.8107 33.8949 55.2142 33.2425 55.4667C32.5918 55.7191 31.9074 55.8453 31.1892 55.8453" fill="#373131"/>
<path d="M33.1652 52.3707L33.8723 53.0778L33.8723 53.0777L33.1652 52.3707ZM53.9545 31.5787L53.2474 30.8716L53.2473 30.8716L53.9545 31.5787ZM55.5065 29.5253L56.3931 29.9878L56.395 29.9842L55.5065 29.5253ZM55.5065 24.7467L56.4169 24.333L56.4165 24.3321L55.5065 24.7467ZM53.9545 22.56L53.2474 23.2671L53.2541 23.2737L53.9545 22.56ZM43.9545 12.56L43.2417 13.2614L43.2474 13.2671L43.9545 12.56ZM41.9198 11.0853L41.5094 11.9972L41.5102 11.9976L41.9198 11.0853ZM35.2425 12.5573L35.9496 13.2644L35.9588 13.2553L35.9677 13.2459L35.2425 12.5573ZM32.9172 14.8827L32.2101 14.1756L31.5039 14.8817L32.2091 15.5888L32.9172 14.8827ZM37.8505 19.8293L37.1424 20.5355L37.1494 20.5424L37.8505 19.8293ZM39.0372 21.6053L39.9684 21.2408L39.9675 21.2387L39.0372 21.6053ZM34.6212 28.4293L34.6224 27.4293H34.6212V28.4293ZM30.8612 27.024L31.5683 26.3169L31.567 26.3156L30.8612 27.024ZM25.7598 21.9413L26.4656 21.2329L25.7586 20.5285L25.0528 21.2342L25.7598 21.9413ZM14.2452 33.4533L13.5381 32.7461L13.5357 32.7486L14.2452 33.4533ZM13.4372 35.4133H14.4372H13.4372ZM14.0425 36.968L14.7558 36.2671L14.7527 36.264L14.0425 36.968ZM16.6612 37.3467L17.054 38.2663L17.0578 38.2647L16.6612 37.3467ZM17.5492 36.7707L16.8421 36.0636L17.5492 36.7707ZM25.9998 28.32L26.7069 27.6129L25.9998 26.9058L25.2927 27.6129L25.9998 28.32ZM27.8878 30.208L28.5956 30.9144L29.3014 30.2073L28.5949 29.5009L27.8878 30.208ZM19.4505 38.6613L20.1553 39.3708L20.1583 39.3678L19.4505 38.6613ZM18.8425 39.5787L17.912 39.2123L17.9098 39.2181L18.8425 39.5787ZM20.7945 42.7733L20.7915 43.7733H20.7945V42.7733ZM22.7545 41.9627L23.4588 42.6726L23.461 42.6704L22.7545 41.9627ZM31.8212 32.912L32.5278 32.2044L31.8213 31.4989L31.1147 32.2043L31.8212 32.912ZM33.7092 34.7973L34.4168 35.5039L35.1234 34.7963L34.4158 34.0897L33.7092 34.7973ZM24.6558 43.864L25.3464 44.5872L25.355 44.579L25.3635 44.5706L24.6558 43.864ZM24.0745 44.752L24.9973 45.1373L24.9989 45.1334L24.0745 44.752ZM24.4772 47.344L25.1873 46.6399L25.1828 46.6354L24.4772 47.344ZM27.9572 47.168L27.2506 46.4604L27.2454 46.4656L27.9572 47.168ZM37.0238 38.1147L37.7309 37.4076L37.0244 36.701L36.3172 37.407L37.0238 38.1147ZM38.9118 40.0027L39.6189 40.7098L40.326 40.0027L39.6189 39.2956L38.9118 40.0027ZM29.8452 49.0693L29.1381 48.3622L29.1357 48.3646L29.8452 49.0693ZM27.6692 54.344L26.952 55.0409L26.9526 55.0415L27.6692 54.344ZM26.3838 50.6267L27.3806 50.7072L27.469 49.6138L26.3721 49.6267L26.3838 50.6267ZM22.6105 49.2747L21.9347 50.0118L21.9354 50.0124L22.6105 49.2747ZM21.1785 45.424L22.178 45.4542L22.2095 44.4128L21.1677 44.4241L21.1785 45.424ZM15.9892 40.2187L16.9877 40.273L17.0458 39.2059L15.9772 39.2187L15.9892 40.2187ZM12.2665 38.9653L12.916 38.2049L12.9151 38.2042L12.2665 38.9653ZM11.1678 33.36L12.1004 33.7209L12.1007 33.7201L11.1678 33.36ZM12.3412 31.552L11.6345 30.8445L11.6328 30.8461L12.3412 31.552ZM25.7598 18.1493L26.4669 17.4422L25.7603 16.7355L25.0531 17.4418L25.7598 18.1493ZM32.6452 25.0347L33.3684 24.3441L33.3604 24.3357L33.3523 24.3276L32.6452 25.0347ZM34.6052 25.8453V24.8453L34.6009 24.8454L34.6052 25.8453ZM36.7758 23.6907L37.7758 23.6935V23.6907H36.7758ZM36.5465 22.5707L35.638 22.9885L35.6388 22.9903L36.5465 22.5707ZM35.9652 21.7333L35.2581 22.4404L35.2649 22.4473L35.2718 22.454L35.9652 21.7333ZM26.7918 12.56L26.08 13.2624L26.0847 13.2671L26.7918 12.56ZM20.1065 11.0853L19.6907 10.1759L19.6898 10.1763L20.1065 11.0853ZM18.0772 12.56L17.3701 11.8529L17.3694 11.8536L18.0772 12.56ZM9.95983 20.6933L10.6647 21.4027L10.6676 21.3998L9.95983 20.6933ZM8.57316 22.7333L9.48647 23.1406L9.48681 23.1399L8.57316 22.7333ZM8.01316 25.1787L9.01274 25.2082L9.01284 25.204L8.01316 25.1787ZM8.7545 28.4827L9.4616 29.1898L9.99293 28.6585L9.63044 28.0003L8.7545 28.4827ZM6.73316 30.504L5.88588 31.0351L6.55262 32.0988L7.44027 31.2111L6.73316 30.504ZM5.33316 25.1813L6.33296 25.2015L6.33301 25.1989L5.33316 25.1813ZM8.05583 18.7387L7.34872 18.0316L7.348 18.0323L8.05583 18.7387ZM16.1225 10.672L15.4188 9.9615L15.4154 9.9649L16.1225 10.672ZM19.0745 8.61867L18.6796 7.69994L18.6783 7.70051L19.0745 8.61867ZM25.7812 8.62134L25.3786 9.53673L25.3805 9.53757L25.7812 8.62134ZM28.6932 10.672L29.4007 9.96531L29.4003 9.9649L28.6932 10.672ZM31.0132 12.9947L30.3057 13.7014L31.0124 14.4089L31.7199 13.7022L31.0132 12.9947ZM33.3385 10.672L32.6348 9.96151L32.6318 9.96449L33.3385 10.672ZM36.2638 8.61867L35.8632 7.70244L35.8618 7.70303L36.2638 8.61867ZM42.9732 8.62134L42.577 9.53951L42.5777 9.53983L42.9732 8.62134ZM45.9065 10.672L45.1987 11.3784L45.1995 11.3792L45.9065 10.672ZM55.8425 20.6053L56.5496 19.8982L56.5495 19.8981L55.8425 20.6053ZM58.7172 27.2293L57.7172 27.2279V27.2293H58.7172ZM55.8425 33.4827L56.5493 34.1901L56.5503 34.1891L55.8425 33.4827ZM35.0505 54.256L34.3437 53.5486L34.3423 53.55L35.0505 54.256ZM33.2425 55.4667L32.8816 54.534L32.8808 54.5344L33.2425 55.4667ZM31.2052 54.1787C31.7066 54.1787 32.1972 54.0656 32.67 53.8636L31.8843 52.0244C31.6246 52.1353 31.4006 52.1787 31.2052 52.1787V54.1787ZM32.67 53.8636C33.1256 53.669 33.537 53.4131 33.8723 53.0778L32.4581 51.6636C32.3418 51.7798 32.1612 51.9061 31.8843 52.0244L32.67 53.8636ZM33.8723 53.0777L54.6617 32.2857L53.2473 30.8716L32.458 51.6636L33.8723 53.0777ZM54.6616 32.2858C55.3897 31.5577 55.9732 30.7928 56.3931 29.9878L54.6199 29.0628C54.3109 29.6552 53.8598 30.2592 53.2474 30.8716L54.6616 32.2858ZM56.395 29.9842C56.8353 29.1317 57.0505 28.2032 57.0505 27.216H55.0505C55.0505 27.9034 54.903 28.5145 54.618 29.0665L56.395 29.9842ZM57.0505 27.216C57.0505 26.2204 56.8366 25.2566 56.4169 24.333L54.5961 25.1603C54.9018 25.8331 55.0505 26.5156 55.0505 27.216H57.0505ZM56.4165 24.3321C55.9978 23.4129 55.4068 22.5842 54.6549 21.8463L53.2541 23.2737C53.8427 23.8514 54.2863 24.4804 54.5965 25.1612L56.4165 24.3321ZM54.6616 21.8529L44.6616 11.8529L43.2474 13.2671L53.2474 23.2671L54.6616 21.8529ZM44.6673 11.8586C43.9401 11.1197 43.1624 10.5471 42.3294 10.1731L41.5102 11.9976C42.071 12.2494 42.6498 12.6599 43.2417 13.2614L44.6673 11.8586ZM42.3303 10.1735C41.4923 9.79626 40.5787 9.61601 39.6052 9.61601V11.616C40.3276 11.616 40.9571 11.7486 41.5094 11.9972L42.3303 10.1735ZM39.6052 9.61601C38.64 9.61601 37.7252 9.79707 36.8724 10.1686L37.6712 12.0021C38.2549 11.7478 38.8957 11.616 39.6052 11.616V9.61601ZM36.8724 10.1686C36.0117 10.5435 35.2281 11.1201 34.5173 11.8688L35.9677 13.2459C36.5262 12.6577 37.0955 12.2529 37.6712 12.0021L36.8724 10.1686ZM34.5354 11.8502L32.2101 14.1756L33.6243 15.5898L35.9496 13.2644L34.5354 11.8502ZM32.2091 15.5888L37.1424 20.5355L38.5586 19.1232L33.6252 14.1765L32.2091 15.5888ZM37.1494 20.5424C37.5837 20.9694 37.899 21.4447 38.1068 21.972L39.9675 21.2387C39.6527 20.4398 39.1769 19.7311 38.5516 19.1163L37.1494 20.5424ZM38.106 21.9698C38.322 22.5219 38.4265 23.0714 38.4265 23.624H40.4265C40.4265 22.8113 40.2714 22.015 39.9684 21.2408L38.106 21.9698ZM38.4265 23.624C38.4265 24.7709 38.0616 25.6574 37.3567 26.3622L38.7709 27.7764C39.883 26.6644 40.4265 25.254 40.4265 23.624H38.4265ZM37.3567 26.3622C36.652 27.067 35.7667 27.4308 34.6224 27.4293L34.6199 29.4293C36.2489 29.4314 37.6588 28.8886 38.7709 27.7764L37.3567 26.3622ZM34.6212 27.4293C34.0399 27.4293 33.475 27.3413 32.923 27.1648L32.314 29.0699C33.0633 29.3094 33.8336 29.4293 34.6212 29.4293V27.4293ZM32.923 27.1648C32.4359 27.0091 31.9855 26.7341 31.5683 26.3169L30.1541 27.7311C30.7786 28.3557 31.4998 28.8096 32.314 29.0699L32.923 27.1648ZM31.567 26.3156L26.4656 21.2329L25.054 22.6497L30.1554 27.7324L31.567 26.3156ZM25.0528 21.2342L13.5381 32.7462L14.9522 34.1605L26.4669 22.6485L25.0528 21.2342ZM13.5357 32.7486C13.1746 33.1121 12.896 33.533 12.7094 34.0069L14.5703 34.7397C14.6539 34.5275 14.7789 34.335 14.9546 34.1581L13.5357 32.7486ZM12.7094 34.0069C12.5308 34.4605 12.4372 34.9312 12.4372 35.4133H14.4372C14.4372 35.1951 14.4787 34.9724 14.5703 34.7397L12.7094 34.0069ZM12.4372 35.4133C12.4372 36.278 12.7241 37.0584 13.3323 37.672L14.7527 36.264C14.5538 36.0634 14.4372 35.8073 14.4372 35.4133H12.4372ZM13.3292 37.6689C13.9384 38.2888 14.7205 38.5813 15.5892 38.5813V36.5813C15.1992 36.5813 14.9502 36.465 14.7558 36.2671L13.3292 37.6689ZM15.5892 38.5813C16.0906 38.5813 16.5813 38.4682 17.054 38.2663L16.2683 36.4271C16.0086 36.538 15.7846 36.5813 15.5892 36.5813V38.5813ZM17.0578 38.2647C17.512 38.0684 17.922 37.812 18.2563 37.4778L16.8421 36.0636C16.7247 36.1809 16.5428 36.3085 16.2646 36.4287L17.0578 38.2647ZM18.2563 37.4778L26.7069 29.0271L25.2927 27.6129L16.8421 36.0636L18.2563 37.4778ZM25.2927 29.0271L27.1807 30.9151L28.5949 29.5009L26.7069 27.6129L25.2927 29.0271ZM27.1801 29.5016L18.7427 37.9549L20.1583 39.3678L28.5956 30.9144L27.1801 29.5016ZM18.7457 37.9519C18.3807 38.3146 18.0995 38.7362 17.912 39.2123L19.773 39.9451C19.8557 39.735 19.9799 39.545 20.1553 39.3708L18.7457 37.9519ZM17.9098 39.2181C17.7347 39.6709 17.6425 40.1395 17.6425 40.6187H19.6425C19.6425 40.4009 19.6836 40.1762 19.7752 39.9393L17.9098 39.2181ZM17.6425 40.6187C17.6425 41.4783 17.9568 42.2406 18.5647 42.8484L19.9789 41.4342C19.7477 41.203 19.6425 40.9501 19.6425 40.6187H17.6425ZM18.5647 42.8484C19.1719 43.4556 19.9329 43.7708 20.7915 43.7733L20.7975 41.7733C20.465 41.7724 20.2109 41.6662 19.9789 41.4342L18.5647 42.8484ZM20.7945 43.7733C21.2977 43.7733 21.7897 43.6585 22.2631 43.454L21.4699 41.618C21.2108 41.7299 20.9881 41.7733 20.7945 41.7733V43.7733ZM22.2631 43.454C22.7159 43.2584 23.125 43.0038 23.4588 42.6726L22.0502 41.2528C21.9325 41.3696 21.7495 41.4972 21.4699 41.618L22.2631 43.454ZM23.461 42.6704L32.5276 33.6197L31.1147 32.2043L22.048 41.2549L23.461 42.6704ZM31.1146 33.6196L33.0026 35.5049L34.4158 34.0897L32.5278 32.2044L31.1146 33.6196ZM33.0015 34.0908L23.9482 43.1574L25.3635 44.5706L34.4168 35.5039L33.0015 34.0908ZM23.9652 43.1408C23.6088 43.4811 23.3434 43.9021 23.1501 44.3706L24.9989 45.1334C25.1078 44.8695 25.2299 44.6985 25.3464 44.5872L23.9652 43.1408ZM23.1517 44.3668C22.9549 44.8382 22.8452 45.3262 22.8452 45.824H24.8452C24.8452 45.6249 24.8883 45.3983 24.9973 45.1373L23.1517 44.3668ZM22.8452 45.824C22.8452 46.6841 23.1621 47.4457 23.7716 48.0526L25.1828 46.6354C24.9496 46.4032 24.8452 46.1514 24.8452 45.824H22.8452ZM23.7671 48.0481C24.3743 48.6605 25.1374 48.9787 25.9998 48.9787V46.9787C25.6711 46.9787 25.4191 46.8737 25.1872 46.6399L23.7671 48.0481ZM25.9998 48.9787C26.4808 48.9787 26.9509 48.8848 27.4046 48.7071L26.6751 46.8449C26.439 46.9374 26.2157 46.9787 25.9998 46.9787V48.9787ZM27.4046 48.7071C27.8832 48.5196 28.3064 48.2378 28.6689 47.8704L27.2454 46.4656C27.0746 46.6387 26.8862 46.7622 26.6751 46.8449L27.4046 48.7071ZM28.6637 47.8756L37.7304 38.8223L36.3172 37.407L27.2506 46.4604L28.6637 47.8756ZM36.3167 38.8218L38.2047 40.7098L39.6189 39.2956L37.7309 37.4076L36.3167 38.8218ZM38.2047 39.2956L29.1381 48.3622L30.5523 49.7764L39.6189 40.7098L38.2047 39.2956ZM29.1357 48.3646C28.7579 48.7449 28.4797 49.1973 28.298 49.7066L30.1817 50.3787C30.2702 50.1307 30.3955 49.9342 30.5546 49.7741L29.1357 48.3646ZM28.298 49.7066C28.1348 50.1639 28.0372 50.6252 28.0372 51.08H30.0372C30.0372 50.909 30.0746 50.6787 30.1817 50.3787L28.298 49.7066ZM28.0372 51.08C28.0372 51.9749 28.3665 52.766 29.0442 53.3566L30.3582 51.8488C30.1505 51.6678 30.0372 51.4438 30.0372 51.08H28.0372ZM29.0442 53.3566C29.6593 53.8926 30.3911 54.1813 31.2052 54.1813V52.1813C30.8992 52.1813 30.6284 52.0843 30.3582 51.8488L29.0442 53.3566ZM31.1892 54.848C30.0947 54.848 29.1779 54.4603 28.3857 53.6465L26.9526 55.0415C28.1124 56.233 29.5423 56.848 31.1892 56.848V54.848ZM28.3864 53.6471C27.6236 52.8622 27.2832 51.9119 27.3806 50.7072L25.3871 50.5461C25.2462 52.289 25.7627 53.817 26.952 55.0409L28.3864 53.6471ZM26.3721 49.6267C25.0846 49.6419 24.0814 49.2652 23.2856 48.5369L21.9354 50.0124C23.1484 51.1224 24.6608 51.647 26.3956 51.6266L26.3721 49.6267ZM23.2863 48.5376C22.5407 47.854 22.135 46.8761 22.178 45.4542L20.179 45.3938C20.1224 47.2643 20.6714 48.8535 21.9347 50.0118L23.2863 48.5376ZM21.1677 44.4241C19.7288 44.4396 18.7145 44.0339 17.9962 43.3075L16.5741 44.7138C17.7545 45.9074 19.3358 46.444 21.1893 46.4239L21.1677 44.4241ZM17.9962 43.3075C17.2782 42.5815 16.9149 41.6097 16.9877 40.273L14.9906 40.1643C14.8927 41.9636 15.3934 43.5199 16.5741 44.7138L17.9962 43.3075ZM15.9772 39.2187C14.7034 39.234 13.707 38.8806 12.916 38.2049L11.617 39.7257C12.8242 40.7567 14.3095 41.2389 16.0012 41.2186L15.9772 39.2187ZM12.9151 38.2042C12.1772 37.5755 11.7705 36.6903 11.7705 35.4133H9.7705C9.7705 37.1729 10.3611 38.6556 11.6179 39.7265L12.9151 38.2042ZM11.7705 35.4133C11.7705 34.861 11.8768 34.2986 12.1004 33.7209L10.2352 32.9991C9.92904 33.7903 9.7705 34.5968 9.7705 35.4133H11.7705ZM12.1007 33.7201C12.3158 33.163 12.6306 32.6782 13.0495 32.2579L11.6328 30.8461C11.0171 31.464 10.5497 32.1846 10.2349 32.9999L12.1007 33.7201ZM13.0478 32.2595L26.4665 18.8569L25.0531 17.4418L11.6345 30.8445L13.0478 32.2595ZM25.0527 18.8564L31.9381 25.7418L33.3523 24.3276L26.4669 17.4422L25.0527 18.8564ZM31.9219 25.7253C32.2446 26.0632 32.6312 26.3279 33.0647 26.5272L33.9003 24.7101C33.6689 24.6037 33.4972 24.479 33.3684 24.3441L31.9219 25.7253ZM33.0647 26.5272C33.5465 26.7488 34.0677 26.8476 34.6094 26.8453L34.6009 24.8454C34.3106 24.8466 34.0834 24.7943 33.9003 24.7101L33.0647 26.5272ZM34.6052 26.8453C35.4347 26.8453 36.1763 26.5466 36.7904 25.9874L35.4439 24.5086C35.1833 24.7459 34.917 24.8453 34.6052 24.8453V26.8453ZM36.7904 25.9874C37.4535 25.3837 37.7733 24.5882 37.7758 23.6935L35.7758 23.6879C35.7748 24.0732 35.6555 24.3159 35.4439 24.5086L36.7904 25.9874ZM37.7758 23.6907C37.7758 23.1503 37.676 22.6307 37.4542 22.151L35.6388 22.9903C35.7228 23.172 35.7758 23.399 35.7758 23.6907H37.7758ZM37.455 22.1528C37.2564 21.7209 36.9936 21.3352 36.6585 21.0127L35.2718 22.454C35.406 22.5831 35.5308 22.7556 35.638 22.9885L37.455 22.1528ZM36.6723 21.0262L27.4989 11.8529L26.0847 13.2671L35.2581 22.4404L36.6723 21.0262ZM27.5036 11.8576C26.7716 11.1157 25.9827 10.5428 25.1324 10.1697L24.3286 12.001C24.9041 12.2536 25.4894 12.6639 26.08 13.2624L27.5036 11.8576ZM25.1324 10.1697C24.2819 9.79636 23.3631 9.61601 22.3892 9.61601V11.616C23.1113 11.616 23.7533 11.7485 24.3286 12.001L25.1324 10.1697ZM22.3892 9.61601C21.4246 9.61601 20.5197 9.79692 19.6907 10.1759L20.5223 11.9948C21.0622 11.748 21.679 11.616 22.3892 11.616V9.61601ZM19.6898 10.1763C18.875 10.5498 18.1032 11.1197 17.3701 11.8529L18.7843 13.2671C19.3916 12.6598 19.9727 12.2467 20.5232 11.9944L19.6898 10.1763ZM17.3694 11.8536L9.25203 19.9869L10.6676 21.3998L18.785 13.2664L17.3694 11.8536ZM9.25493 19.984C8.58857 20.6463 8.05809 21.431 7.65952 22.3268L9.48681 23.1399C9.79223 22.4534 10.1862 21.8782 10.6647 21.4026L9.25493 19.984ZM7.65986 22.3261C7.25569 23.2324 7.03825 24.177 7.01349 25.1533L9.01284 25.204C9.03074 24.4986 9.18664 23.813 9.48647 23.1406L7.65986 22.3261ZM7.0136 25.1492C6.99357 25.8282 7.05149 26.4886 7.19077 27.1276L9.14489 26.7017C9.04239 26.2314 8.9972 25.7344 9.01273 25.2082L7.0136 25.1492ZM7.19077 27.1276C7.33191 27.7752 7.56118 28.3888 7.87855 28.9651L9.63044 28.0003C9.40737 27.5952 9.24553 27.1634 9.14489 26.7017L7.19077 27.1276ZM8.04739 27.7756L6.02606 29.7969L7.44027 31.2111L9.4616 29.1898L8.04739 27.7756ZM7.58045 29.9729C7.19175 29.3528 6.87798 28.6229 6.64768 27.7731L4.71731 28.2962C4.9919 29.3095 5.37858 30.2259 5.88588 31.0351L7.58045 29.9729ZM6.64768 27.7731C6.42026 26.9339 6.31531 26.0777 6.33296 25.2015L4.33337 25.1612C4.31191 26.2264 4.43985 27.2723 4.71731 28.2962L6.64768 27.7731ZM6.33301 25.1989C6.35213 24.1119 6.56896 23.0772 6.98349 22.0877L5.13883 21.3149C4.62536 22.5406 4.35686 23.8258 4.33332 25.1637L6.33301 25.1989ZM6.98349 22.0877C7.39636 21.1022 7.98751 20.2228 8.76366 19.4451L7.348 18.0323C6.3926 18.9897 5.65397 20.0853 5.13883 21.3149L6.98349 22.0877ZM8.76294 19.4458L16.8296 11.3791L15.4154 9.9649L7.34872 18.0316L8.76294 19.4458ZM16.8262 11.3825C17.6811 10.5358 18.5636 9.92828 19.4707 9.53684L18.6783 7.70051C17.509 8.20507 16.4235 8.96645 15.4188 9.96151L16.8262 11.3825ZM19.4694 9.53741C20.3745 9.14839 21.3618 8.94934 22.4425 8.94934V6.94934C21.109 6.94934 19.8509 7.19651 18.6796 7.69994L19.4694 9.53741ZM22.4425 8.94934C23.5229 8.94934 24.4972 9.14912 25.3786 9.53673L26.1837 7.70596C25.0278 7.19757 23.7763 6.94934 22.4425 6.94934V8.94934ZM25.3805 9.53757C26.2691 9.92611 27.1387 10.5317 27.9861 11.3791L29.4003 9.9649C28.4059 8.97049 27.3342 8.20901 26.1818 7.70511L25.3805 9.53757ZM27.9857 11.3787L30.3057 13.7014L31.7207 12.288L29.4007 9.96531L27.9857 11.3787ZM31.7199 13.7022L34.0452 11.3795L32.6318 9.96449L30.3065 12.2872L31.7199 13.7022ZM34.0422 11.3825C34.8997 10.5332 35.7754 9.92524 36.6658 9.53432L35.8618 7.70303C34.7114 8.20811 33.6368 8.96907 32.6348 9.96151L34.0422 11.3825ZM36.6645 9.53491C37.5483 9.14843 38.5243 8.94934 39.6052 8.94934V6.94934C38.2718 6.94934 37.0203 7.19647 35.8632 7.70244L36.6645 9.53491ZM39.6052 8.94934C40.6853 8.94934 41.6721 9.14907 42.577 9.53951L43.3694 7.70317C42.1977 7.19761 40.9392 6.94934 39.6052 6.94934V8.94934ZM42.5777 9.53983C43.4811 9.92877 44.3557 10.5338 45.1987 11.3784L46.6143 9.96558C45.619 8.96841 44.5381 8.20636 43.3686 7.70285L42.5777 9.53983ZM45.1995 11.3792L55.1355 21.3125L56.5495 19.8981L46.6135 9.96481L45.1995 11.3792ZM55.1354 21.3124C55.9697 22.1468 56.6064 23.0756 57.054 24.1013L58.8871 23.3014C58.3355 22.0373 57.5535 20.9021 56.5496 19.8982L55.1354 21.3124ZM57.054 24.1013C57.5002 25.1241 57.7187 26.1637 57.7172 27.2279L59.7172 27.2308C59.7192 25.8807 59.4399 24.5684 58.8871 23.3014L57.054 24.1013ZM57.7172 27.2293C57.7172 28.2964 57.4986 29.2587 57.072 30.1316L58.869 31.0097C59.4379 29.8454 59.7172 28.5801 59.7172 27.2293H57.7172ZM57.072 30.1316C56.6293 31.0377 55.9892 31.9201 55.1347 32.7762L56.5503 34.1891C57.5376 33.1999 58.3162 32.141 58.869 31.0097L57.072 30.1316ZM55.1357 32.7752L34.3437 53.5486L35.7573 54.9634L56.5493 34.1901L55.1357 32.7752ZM34.3423 53.55C33.8762 54.0176 33.389 54.3378 32.8816 54.534L33.6033 56.3993C34.4009 56.0907 35.119 55.6038 35.7587 54.962L34.3423 53.55ZM32.8808 54.5344C32.3488 54.7408 31.7873 54.8453 31.1892 54.8453V56.8453C32.0274 56.8453 32.8348 56.6975 33.6042 56.399L32.8808 54.5344Z" fill="#373131" mask="url(#path-1-inside-1_834_1030)"/>
</svg>
